:FULLY-SPECIFIED
:FORCE-ALL-JOINTS-BE-3DOF
:DEGREES
388
root 9.47506 17.0589 18.3254 6.13246 -0.505066 -5.25944
lfemur -41.4826 2.05788 -14.777
ltibia 27.9227 0 0
lfoot -14.9115 10.0255 0
ltoes -15.6981 0 0
rfemur 4.11366 5.72076 31.5897
rtibia 12.3239 0 0
rfoot -15.065 5.46368 0
rtoes -15.3171 0 0
lowerback -6.91746 2.60279 1.69785
upperback 0.0441398 3.19618 3.43158
thorax 3.82268 1.59086 2.92562
lowerneck -19.3118 -6.24234 -13.2555
upperneck 21.5209 -8.11032 13.2271
head 11.3079 -3.25345 5.82562
lclavicle -1.9029e-14 -8.94529e-16 0
lhumerus -50.5661 -11.252 95.3908
lradius 26.3316 0 0
lwrist 9.48067 0 0
lhand -13.452 -22.6988 0
lfingers 7.12502 0 0
lthumb 12.6573 6.89486 0
rclavicle -1.9029e-14 -8.94529e-16 0
rhumerus -26.9443 16.5272 -83.1222
rradius 42.741 0 0
rwrist -21.2419 0 0
rhand -32.1078 -22.8923 0
rfingers 7.12502 0 0
rthumb -5.35279 -52.8045 0
389
root 9.4876 17.0509 18.4976 6.06659 -0.698112 -5.61963
lfemur -41.5754 1.65595 -14.1193
ltibia 25.9976 0 0
lfoot -15.0603 10.2591 0
ltoes -16.378 0 0
rfemur 5.71215 5.76916 31.9381
rtibia 10.5732 0 0
rfoot -14.4128 5.67666 0
rtoes -14.4078 0 0
lowerback -6.94039 2.72851 1.99197
upperback 0.140236 3.33172 3.54045
thorax 3.94002 1.66162 2.89312
lowerneck -19.4051 -6.27304 -13.3196
upperneck 21.4912 -8.13143 13.2729
head 11.3239 -3.25989 5.84909
lclavicle -2.71378e-14 -3.82844e-15 0
lhumerus -50.853 -11.0546 95.441
lradius 26.4611 0 0
lwrist 9.65191 0 0
lhand -12.9195 -22.3813 0
lfingers 7.12502 0 0
lthumb 13.1707 7.18095 0
rclavicle -2.71378e-14 -3.82844e-15 0
rhumerus -26.507 16.3366 -83.1569
rradius 42.2536 0 0
rwrist -21.0244 0 0
rhand -32.1166 -22.3565 0
rfingers 7.12502 0 0
rthumb -5.36131 -52.2684 0
390
root 9.49282 17.0477 18.5797 6.01605 -0.789464 -5.82193
lfemur -41.593 1.53857 -13.8155
ltibia 25.0036 0 0
lfoot -15.1435 10.2887 0
ltoes -16.7623 0 0
rfemur 6.48248 5.79659 32.1443
rtibia 9.76055 0 0
rfoot -14.1488 5.78564 0
rtoes -13.9538 0 0
lowerback -6.93231 2.78815 2.15544
upperback 0.196289 3.39436 3.603
thorax 3.99633 1.69455 2.87485
lowerneck -19.4732 -6.29079 -13.3499
upperneck 21.4748 -8.1441 13.299
head 11.3359 -3.26281 5.86123
lclavicle -3.32049e-14 -5.47026e-15 0
lhumerus -50.9899 -10.9662 95.4621
lradius 26.5461 0 0
lwrist 9.7832 0 0
lhand -12.5694 -22.0483 0
lfingers 7.12502 0 0
lthumb 13.5082 7.49341 0
rclavicle -3.32049e-14 -5.47026e-15 0
rhumerus -26.2586 16.2456 -83.1726
rradius 41.9785 0 0
rwrist -20.9229 0 0
rhand -32.1531 -22.0336 0
rfingers 7.12502 0 0
rthumb -5.39651 -51.9447 0
391
root 9.48706 17.0517 18.5259 5.99963 -0.73729 -5.76612
lfemur -41.5197 1.85283 -14.0762
ltibia 25.3853 0 0
lfoot -15.1155 9.99041 0
ltoes -16.6809 0 0
rfemur 5.98129 5.7848 32.1148
rtibia 10.3882 0 0
rfoot -14.4814 5.74206 0
rtoes -14.2254 0 0
lowerback -6.88938 2.75178 2.10373
upperback 0.187041 3.35339 3.58934
thorax 3.9613 1.67337 2.88231
lowerneck -19.4876 -6.28664 -13.3307
upperneck 21.4778 -8.14292 13.299
head 11.3387 -3.26018 5.85814
lclavicle -3.54085e-14 -4.77083e-15 0
lhumerus -50.9077 -11.0319 95.4366
lradius 26.547 0 0
lwrist 9.84139 0 0
lhand -12.5494 -21.725 0
lfingers 7.12502 0 0
lthumb 13.5275 7.81564 0
rclavicle -3.54085e-14 -4.77083e-15 0
rhumerus -26.2964 16.2992 -83.153
rradius 42.0452 0 0
rwrist -20.9921 0 0
rhand -32.2316 -22.0431 0
rfingers 7.12502 0 0
rthumb -5.47233 -51.9525 0
